<svg width="78" height="19" fill="none" xmlns="http://www.w3.org/2000/svg"><path d="M2.73 3.434l.088 1.181c.75-.918 1.761-1.377 3.037-1.377 1.361 0 2.295.537 2.803 1.612.742-1.075 1.8-1.612 3.174-1.612 1.146 0 1.999.336 2.559 1.006.56.664.84 1.667.84 3.008V14h-2.833V7.262c0-.6-.117-1.035-.351-1.309-.235-.28-.648-.42-1.24-.42-.847 0-1.433.404-1.758 1.211L9.059 14H6.236V7.271c0-.611-.12-1.054-.361-1.328-.24-.273-.651-.41-1.23-.41-.801 0-1.38.332-1.739.996V14H.084V3.434H2.73zm21.623 6.572l1.954-6.572h3.027L25.086 15.64l-.234.556c-.632 1.38-1.674 2.07-3.125 2.07a4.44 4.44 0 01-1.25-.185v-2.139l.43.01c.533 0 .93-.081 1.19-.244.268-.163.476-.433.626-.81l.332-.87-3.701-10.595h3.037l1.963 6.572zM36.827.836v2.598h1.807v2.07h-1.807v5.273c0 .391.075.67.225.84.15.17.436.254.86.254.312 0 .588-.023.83-.068v2.138a5.809 5.809 0 01-1.71.254c-1.979 0-2.988-.999-3.027-2.998V5.504H32.46v-2.07h1.543V.836h2.822zm5.647 7.783c0-1.048.202-1.982.605-2.803a4.442 4.442 0 011.738-1.904c.762-.45 1.644-.674 2.647-.674 1.426 0 2.588.436 3.486 1.309.905.872 1.41 2.057 1.514 3.555l.02.722c0 1.621-.453 2.923-1.358 3.906-.905.977-2.12 1.465-3.643 1.465-1.523 0-2.74-.488-3.652-1.465-.905-.976-1.357-2.304-1.357-3.984V8.62zm2.822.205c0 1.003.189 1.771.566 2.305.378.527.918.79 1.621.79.684 0 1.218-.26 1.602-.78.384-.528.576-1.368.576-2.52 0-.983-.192-1.745-.576-2.285-.384-.54-.925-.81-1.621-.81-.69 0-1.224.27-1.602.81-.377.534-.566 1.364-.566 2.49zm18.254 4.102c-.697.846-1.66 1.27-2.89 1.27-1.134 0-2-.326-2.599-.977-.592-.651-.895-1.605-.908-2.862V3.434h2.823v6.826c0 1.1.5 1.65 1.503 1.65.957 0 1.615-.332 1.973-.996v-7.48h2.832V14h-2.656l-.078-1.074zm13.8-6.846a7.665 7.665 0 00-1.015-.078c-1.068 0-1.768.361-2.1 1.084V14h-2.822V3.434h2.666l.078 1.26c.567-.97 1.351-1.456 2.354-1.456.312 0 .605.043.879.127l-.04 2.715z" fill="#fff"/></svg>